<svg width="35" height="31" viewBox="0 0 35 31" fill="none" xmlns="http://www.w3.org/2000/svg">
<path d="M25.833 5.23926L34.2275 13.6338C34.7197 14.126 35 14.8027 35 15.5C35 16.1973 34.7197 16.874 34.2275 17.3662L25.833 25.7607C25.3955 26.1982 24.8076 26.4375 24.1924 26.4375C22.9141 26.4375 21.875 25.3984 21.875 24.1201V19.875H13.125C11.915 19.875 10.9375 18.8975 10.9375 17.6875V13.3125C10.9375 12.1025 11.915 11.125 13.125 11.125H21.875V6.87988C21.875 5.60156 22.9141 4.5625 24.1924 4.5625C24.8076 4.5625 25.3955 4.80859 25.833 5.23926ZM10.9375 4.5625H6.5625C5.35254 4.5625 4.375 5.54004 4.375 6.75V24.25C4.375 25.46 5.35254 26.4375 6.5625 26.4375H10.9375C12.1475 26.4375 13.125 27.415 13.125 28.625C13.125 29.835 12.1475 30.8125 10.9375 30.8125H6.5625C2.93945 30.8125 0 27.873 0 24.25V6.75C0 3.12695 2.93945 0.1875 6.5625 0.1875H10.9375C12.1475 0.1875 13.125 1.16504 13.125 2.375C13.125 3.58496 12.1475 4.5625 10.9375 4.5625Z" fill="#797D94"/>
</svg>
