<svg width="35" height="35" viewBox="0 0 35 35" fill="none" xmlns="http://www.w3.org/2000/svg">
<path d="M16.4127 0.287109C17.0827 -0.0957031 17.9098 -0.0957031 18.5866 0.287109L30.3307 6.99316L30.6247 7.10938V7.1709L33.8991 9.04395C34.7604 9.53613 35.1842 10.5479 34.9313 11.5049C34.6784 12.4619 33.8102 13.1318 32.819 13.1318H2.18716C1.19595 13.1318 0.327782 12.4619 0.0748519 11.5049C-0.178078 10.5479 0.24575 9.53613 1.10708 9.04395L4.37466 7.1709V7.10938L4.67544 7L16.4127 0.287109ZM4.37466 15.3125H8.74966V28.4375H11.484V15.3125H15.859V28.4375H19.1403V15.3125H23.5153V28.4375H26.2497V15.3125H30.6247V28.7314C30.6657 28.752 30.7067 28.7793 30.7477 28.8066L34.029 30.9941C34.8288 31.5273 35.1911 32.5254 34.9108 33.4482C34.6305 34.3711 33.776 35 32.8122 35H2.18716C1.22329 35 0.375633 34.3711 0.0953597 33.4482C-0.184914 32.5254 0.170555 31.5273 0.977196 30.9941L4.25845 28.8066C4.29946 28.7793 4.34048 28.7588 4.38149 28.7314V15.3125H4.37466Z" fill="#797D94"/>
</svg>
